# xmcd
#
# Track frame offsets: 
#        150
#        12429
#        26900
#        39602
#        57182
#        72080
#        87348
#        104320
#        122398
#        138375
#        152991
#        168495
#        180836
#        198563
#        215652
#        231326
#        242383
#        254424
#        267135
#        281093
#        295193
#        309283
#        322483
#        335998
#
# Disc length: 4664 seconds
#
# Revision: 0
# Processed by: cddbd v1.5.2PL0 Copyright (c) Steve Scherf et al.
# Submitted via: ExactAudioCopy v1.1
#
DISCID=6b123618
DTITLE=Various Artist - MNM Party 2019 Volume 1 - CD 1 - Newest Party Hits
DYEAR=2019
DGENRE=Top 40
TTITLE0=Netsky Feat. Bazzi and Lil Wayne - I Don't Even Know You Anymore
TTITLE1=Camelphat X Cristoph Feat. Jem Cooke - Breathe
TTITLE2=Regi and Milo Meskens - Ordinary
TTITLE3=Dom Dolla - Take It
TTITLE4=Gesaffelstein and The Weeknd - Lost In The Fire
TTITLE5=Henri PFR Feat. Susan H - Easy
TTITLE6=The Blockparty and Esko Feat. Mouad Locos, JoeyAK, Young Ellens 
TTITLE6=& Chivv - Huts
TTITLE7=Alan Walker and Sophia Somajo - Diamond Heart
TTITLE8=Marnik and Smack - Gam Gam
TTITLE9=Seeb and Bastille - Grip
TTITLE10=Ariana Grande - Thank U, Next
TTITLE11=Bob Sinclar Feat. Robbie Williams - Electrico Romantico
TTITLE12=Silk City and Dua Lipa Feat. Diplo and Mark Ronson - Electricity
TTITLE13=Little Mix Feat. Nicki Minaj - Woman Like Me
TTITLE14=Kygo Feat. Sandro Cavazza - Happy Now
TTITLE15=Post Malone - Wow.
TTITLE16=Michael Amani and MARF - It's A Feeling
TTITLE17=Aya Nakamura - Djadja
TTITLE18=Jax Jones And Years and Years - Play
TTITLE19=Rita Ora - Let You Love Me
TTITLE20=Jonas Blue, Liam Payne and Lennon Stella - Polaroid
TTITLE21=Kris Kross Amsterdam X Ally Brooke X Messiah - Vamonos
TTITLE22=Bizzey, Kraantje Pappie, Jonna Fraser and Ramiks - Drup
TTITLE23=Dimitri Vegas and Like Mike X Frenna - Daar Gaat Ze (Nooit Verd
TTITLE23=iend)
EXTD=
EXTT0=
EXTT1=
EXTT2=
EXTT3=
EXTT4=
EXTT5=
EXTT6=
EXTT7=
EXTT8=
EXTT9=
EXTT10=
EXTT11=
EXTT12=
EXTT13=
EXTT14=
EXTT15=
EXTT16=
EXTT17=
EXTT18=
EXTT19=
EXTT20=
EXTT21=
EXTT22=
EXTT23=
PLAYORDER=
